# Blender v2.68 (sub 0) OBJ File: 'world.blend'
# www.blender.org
o Cube
v 8.224754 0.000000 -8.224754
v 8.224754 0.000000 15.216901
v -8.224755 0.000000 15.216899
v -8.224751 0.000000 -8.224757
v 8.224758 5.000000 -8.224751
v 8.224750 5.000000 15.216907
v -8.224757 5.000000 15.216898
v -8.224753 5.000000 -8.224754
v 8.224754 0.000000 0.030367
v -8.224751 0.000000 0.030364
v 8.224758 5.000000 0.030371
v -8.224753 5.000000 0.030367
v 8.224754 0.000000 0.181293
v -8.224751 0.000000 0.181290
v 8.224758 5.000000 0.181297
v -8.224753 5.000000 0.181293
v -2.287955 0.000000 8.224752
v -2.287957 5.000000 8.224751
v -2.287951 0.000000 0.181290
v -2.287953 5.000000 0.181293
v -2.122806 0.000000 8.224752
v -2.122808 5.000000 8.224751
v -2.122802 0.000000 0.181290
v -2.122804 5.000000 0.181293
v -2.122807 5.000000 5.518444
v -2.122806 5.000000 4.066682
v -2.122803 0.000000 4.066682
v -2.122805 0.000000 5.518444
v -2.122807 2.500000 8.224752
v -2.122803 2.500000 0.181290
v -2.122804 2.500000 4.066682
v -2.122806 2.500000 5.518444
v -2.287956 5.000000 5.518444
v -2.287955 5.000000 4.066682
v -2.287952 0.000000 4.066682
v -2.287954 0.000000 5.518444
v -2.287956 2.500000 8.224752
v -2.287952 2.500000 0.181290
v -2.287953 2.500000 4.066682
v -2.287955 2.500000 5.518444
v 5.358247 0.000000 0.181293
v 5.358250 5.000000 0.181296
v 3.446677 0.000000 0.181292
v 3.446679 5.000000 0.181296
v 8.224756 2.500000 0.181295
v -8.224752 2.500000 0.181292
v 5.358249 2.500000 0.181294
v 3.446678 2.500000 0.181294
v 5.358247 0.000000 0.030366
v 5.358250 5.000000 0.030370
v 3.446677 0.000000 0.030366
v 3.446677 5.000000 0.030369
v 8.224756 2.500000 0.030369
v -8.224752 2.500000 0.030365
v 5.358249 2.500000 0.030368
v 3.446677 2.500000 0.030367
v -6.781867 0.000000 0.181291
v -6.781869 5.000000 0.181293
v -6.781868 2.500000 0.181292
v -5.479098 2.500000 0.181292
v -5.479097 0.000000 0.181291
v -5.479099 5.000000 0.181294
v -6.781867 0.000000 0.030365
v -6.781869 5.000000 0.030368
v -6.781868 2.500000 0.030366
v -5.479097 0.000000 0.030365
v -5.479099 5.000000 0.030368
v -5.479099 2.500000 0.030366
v 8.365885 0.000000 8.224758
v 8.365884 5.000000 8.224760
v -2.122806 0.000000 8.224752
v -2.122803 5.000000 8.224756
v 8.365885 0.000000 8.059609
v 8.365884 5.000000 8.059611
v -2.122806 0.000000 8.059604
v -2.122803 5.000000 8.059607
v 3.214347 5.000000 8.059610
v 1.762586 5.000000 8.059608
v 1.762586 0.000000 8.059606
v 3.214347 0.000000 8.059608
v 8.365885 2.500000 8.059610
v -2.122806 2.500000 8.059605
v 1.762586 2.500000 8.059607
v 3.214347 2.500000 8.059608
v 3.214347 5.000000 8.224758
v 1.762586 5.000000 8.224757
v 1.762586 0.000000 8.224754
v 3.214347 0.000000 8.224756
v 8.365885 2.500000 8.224759
v -2.122806 2.500000 8.224754
v 1.762586 2.500000 8.224756
v 3.214347 2.500000 8.224758
v -2.287955 0.000000 8.224752
v -2.287956 5.000000 8.224754
v -8.428634 0.000000 8.224747
v -8.428631 5.000000 8.224751
v -2.287955 0.000000 8.059603
v -2.287956 5.000000 8.059605
v -8.428634 0.000000 8.059597
v -8.428631 5.000000 8.059601
v -4.382668 5.000000 8.059605
v -5.834430 5.000000 8.059603
v -5.834430 0.000000 8.059599
v -4.382668 0.000000 8.059601
v -2.287955 2.500000 8.059605
v -8.428634 2.500000 8.059599
v -5.834430 2.500000 8.059601
v -4.382668 2.500000 8.059603
v -4.382668 5.000000 8.224752
v -5.834430 5.000000 8.224751
v -5.834430 0.000000 8.224749
v -4.382668 0.000000 8.224751
v -2.287955 2.500000 8.224752
v -8.428634 2.500000 8.224749
v -5.834430 2.500000 8.224751
v -4.382668 2.500000 8.224752
vn 0.000000 1.000000 0.000000
vn 0.000000 -1.000000 0.000000
vn -1.000000 -0.000000 -0.000000
vn 0.000000 0.000000 -1.000000
vn 1.000000 0.000000 0.000000
vn -0.000000 -0.000001 1.000000
vn 0.000000 0.000001 -1.000000
vn -1.000000 -0.000000 -0.000001
vn 1.000000 0.000000 0.000001
vn 1.000000 0.000001 0.000000
vn -1.000000 -0.000001 -0.000000
vn -1.000000 -0.000001 -0.000001
vn 1.000000 -0.000000 -0.000002
vn 0.000001 0.000001 -1.000000
vn -1.000000 0.000001 0.000000
vn 0.000000 -0.000000 1.000000
vn -1.000000 -0.000000 0.000002
vn 1.000000 0.000001 -0.000003
vn -0.000001 -0.000000 1.000000
vn -0.000001 -0.000001 1.000000
s off
f 1//1 4//1 3//1 2//1
f 5//2 6//2 7//2 8//2
f 1//3 2//3 6//3 5//3
f 2//4 3//4 7//4 6//4
f 3//5 4//5 8//5 7//5
f 5//6 8//6 4//6 1//6
f 65//7 63//7 10//7 54//7
f 59//6 46//6 14//6 57//6
f 40//8 36//8 17//8 37//8
f 32//9 29//9 21//9 28//9
f 30//10 31//10 27//10 23//10
f 38//11 19//11 35//11 39//11
f 25//5 22//5 29//5 32//5
f 24//10 26//10 31//10 30//10
f 26//9 25//9 32//9 31//9
f 45//6 47//6 41//6 13//6
f 33//3 40//3 37//3 18//3
f 20//11 38//11 39//11 34//11
f 34//12 39//12 40//12 33//12
f 58//6 16//6 46//6 59//6
f 15//6 42//6 47//6 45//6
f 42//6 44//6 48//6 47//6
f 53//7 9//7 49//7 55//7
f 56//13 48//13 43//13 51//13
f 64//7 65//7 54//7 12//7
f 11//7 53//7 55//7 50//7
f 50//14 55//14 56//14 52//14
f 48//2 56//2 55//2 47//2
f 47//15 55//15 49//15 41//15
f 31//16 39//16 35//16 27//16
f 32//2 40//2 39//2 31//2
f 40//4 32//4 28//4 36//4
f 60//17 68//17 66//17 61//17
f 62//6 58//6 59//6 60//6
f 48//6 60//6 61//6 43//6
f 44//6 62//6 60//6 48//6
f 67//7 68//7 65//7 64//7
f 56//7 51//7 66//7 68//7
f 52//7 56//7 68//7 67//7
f 68//2 60//2 59//2 65//2
f 65//18 59//18 57//18 63//18
f 37//16 29//16 22//16 18//16
f 29//16 37//16 17//16 21//16
f 92//6 88//6 69//6 89//6
f 84//4 81//4 73//4 80//4
f 82//4 83//4 79//4 75//4
f 90//6 71//6 87//6 91//6
f 77//7 74//7 81//7 84//7
f 76//7 78//7 83//7 82//7
f 78//14 77//14 84//14 83//14
f 85//16 92//16 89//16 70//16
f 72//6 90//6 91//6 86//6
f 86//19 91//19 92//19 85//19
f 83//5 91//5 87//5 79//5
f 84//2 92//2 91//2 83//2
f 92//3 84//3 80//3 88//3
f 89//5 81//5 74//5 70//5
f 81//5 89//5 69//5 73//5
f 116//16 112//16 93//16 113//16
f 108//14 105//14 97//14 104//14
f 106//14 107//14 103//14 99//14
f 114//20 95//20 111//20 115//20
f 101//4 98//4 105//4 108//4
f 100//14 102//14 107//14 106//14
f 102//14 101//14 108//14 107//14
f 109//16 116//16 113//16 94//16
f 96//16 114//16 115//16 110//16
f 110//19 115//19 116//19 109//19
f 107//5 115//5 111//5 103//5
f 108//2 116//2 115//2 107//2
f 116//3 108//3 104//3 112//3
f 113//5 105//5 98//5 94//5
f 105//5 113//5 93//5 97//5
